<svg xmlns="http://www.w3.org/2000/svg" viewBox="0 0 64 64">
  <defs>
    <radialGradient id="bg" cx="50%" cy="50%" r="70%">
      <stop offset="0%" stop-color="#1a1200"/>
      <stop offset="100%" stop-color="#050300"/>
    </radialGradient>
    <linearGradient id="trail" x1="0%" y1="0%" x2="100%" y2="100%">
      <stop offset="0%" stop-color="#fff1a8" stop-opacity="0.95"/>
      <stop offset="45%" stop-color="#ffd55c" stop-opacity="0.85"/>
      <stop offset="100%" stop-color="#b87809" stop-opacity="0.15"/>
    </linearGradient>
    <filter id="glow" x="-40%" y="-40%" width="180%" height="180%">
      <feGaussianBlur stdDeviation="1.2" result="blur"/>
      <feMerge>
        <feMergeNode in="blur"/>
        <feMergeNode in="SourceGraphic"/>
      </feMerge>
    </filter>
  </defs>

  <rect width="64" height="64" rx="14" fill="url(#bg)"/>

  <g fill="none" stroke="url(#trail)" stroke-linecap="round" filter="url(#glow)">
    <path d="M15 33c0-10 8-18 17-18 8 0 15 5 18 13" stroke-width="4.2"/>
    <path d="M50 31c0 10-8 18-17 18-8 0-15-5-18-13" stroke-width="3.6" opacity="0.9"/>
    <path d="M22 18c7-4 16-3 22 4" stroke-width="2.4" opacity="0.75"/>
    <path d="M42 46c-7 4-16 3-22-4" stroke-width="2.2" opacity="0.65"/>
  </g>

  <g filter="url(#glow)">
    <circle cx="16" cy="33" r="3.3" fill="#ffe38a"/>
    <circle cx="50" cy="31" r="3.1" fill="#ffd15b"/>
    <circle cx="23" cy="19" r="2.1" fill="#ffefb5"/>
    <circle cx="41" cy="45" r="2.0" fill="#ffc93c"/>
    <circle cx="32" cy="32" r="1.4" fill="#fff4c8" opacity="0.9"/>
  </g>
</svg>
